# xmcd CD database file generated by Grip 2.92
# 
# Track frame offsets:
#       150
#       14616
#       31185
#       53348
#       68579
#       81663
#       104467
#       115493
#       140386
#       159874
#       175278
#       199210
# 
# Disc length: 2856 seconds
# 
# Revision: 3
# Processed by: cddbd v1.4b41PL1 Copyright (c) Steve Scherf et al.
# Submitted via: Grip 2.92
# 
DISCID=9d0b260c
DTITLE=Redheaded Stepchild - Time Will Tell
DYEAR=1900
DGENRE=
TTITLE0=10 Cent Dress
TTITLE1=No Sleep
TTITLE2=Rainy Tuesday
TTITLE3=Any Old Way
TTITLE4=Daughter's Lament
TTITLE5=Worth Dying For
TTITLE6=On the Wire
TTITLE7=The War
TTITLE8=Straight
TTITLE9=North Country Wind
TTITLE10=Honey's Blues
TTITLE11=Time Will Tell
EXTD=
EXTT0=
EXTT1=
EXTT2=
EXTT3=
EXTT4=
EXTT5=
EXTT6=
EXTT7=
EXTT8=
EXTT9=
EXTT10=
EXTT11=
PLAYORDER=
